<?xml version="1.0" encoding="utf-8" ?>
<svg xmlns="http://www.w3.org/2000/svg" xmlns:xlink="http://www.w3.org/1999/xlink" width="1024" height="1024">
	<path fill="#FEFEFE" d="M0 0L1024 0L1024 1024L0 1024L0 0Z"/>
	<path d="M479.249 570.248L600.288 570.018C616.604 586.679 633.475 602.795 649.56 619.682C633.373 620.289 617.081 619.952 600.88 619.951L517.984 619.928L482.77 619.765L482.831 701.006L428.245 701.004C427.702 686.607 428.121 672.018 428.095 657.596L428.188 570.374L479.249 570.248Z"/>
	<path d="M587.964 245.837C604.507 262.939 621.991 279.151 638.791 295.997C627.212 295.602 615.534 295.916 603.944 295.916L538.75 295.915L482.565 295.892L482.556 395.328C464.492 394.975 446.389 395.17 428.32 395.123L428.189 301.476C428.171 282.94 427.897 264.371 428.37 245.841L515.99 245.997C539.973 246.001 563.985 246.226 587.964 245.837Z"/>
	<path d="M836.453 176.396C837.03 176.702 837.204 176.776 837.806 177.204C847.485 184.09 856.637 193.424 864.586 202.24C896.565 237.71 918.535 281.639 925.621 328.997C932.757 376.691 925.88 428.922 905.271 472.627C895.283 493.808 882.144 513.494 868.265 532.295C908.318 579.051 932.385 637.182 933.348 698.909C934.372 764.509 909.505 828.371 863.641 875.482C831.733 908.259 791.55 931.46 747.249 942.589C710.146 951.909 678 950.792 640.295 950.654L561.237 950.609L356.42 950.685C324.282 950.722 292.123 950.383 259.989 950.827L245.135 940.759C225.655 927.334 206.178 913.733 186.335 900.86L491.438 900.837L587.86 900.941C625.906 900.979 660.029 902.568 697.54 893.833C738.363 884.327 780.233 861.671 810.063 832.19C848.099 794.599 874.576 744.58 882.749 691.546C884.722 678.741 885.366 665.56 885.436 652.617C885.648 613.589 875.985 576.411 858.768 541.537C853.205 530.267 846.868 518.905 839.297 508.855C833.478 501.131 826.677 494.396 819.894 487.536C850.895 450.392 870.402 404.539 878.264 356.979C888.367 295.866 872.628 226.847 836.453 176.396Z"/>
	<path d="M91.4851 69.7792C99.8752 75.2012 109.237 85.0307 116.863 91.9225L173.376 143.5L352.23 306.563C367.885 320.601 383.848 334.309 399.643 348.191C399.304 373.096 399.51 398.024 399.518 422.932L615.044 422.864C635.363 402.142 655.76 380.988 676.924 361.139L676.735 295.672L629.273 248.244C619.678 238.742 610.222 228.869 600.177 219.853L467.641 219.851L432.831 219.899C426.457 219.908 419.408 220.546 413.159 219.408C404.997 217.922 388.095 206.859 380.102 202.461C348.754 185.213 317.746 167.39 286.625 149.742L150.016 73.3341C189.753 74.3065 229.746 73.3277 269.506 73.3696L602.641 73.2514C615.016 73.3439 627.314 73.6402 639.569 75.5188C693.327 83.7597 744.888 112.903 782.751 151.474C826.648 196.192 853.222 260.112 852.566 322.871C852.077 369.744 835.428 419.193 807.301 456.707C798.24 468.791 787.828 479.376 777.071 489.927C782.785 495.329 789.446 499.761 795.232 505.126C811.583 520.286 824.57 538.974 834.52 558.865C853.767 597.345 860.757 644.186 854.164 686.673C851.908 701.213 847.894 715.17 843.241 729.1C832.24 757.108 816.422 783.809 795.068 805.206C764.424 835.911 726.104 857.151 683.814 866.917C655.116 873.545 626.019 872.32 596.779 872.349L502.535 872.177L182.136 872.01L182.294 402.388C203.568 426.406 226.875 448.708 248.976 471.967L399.363 629.33C398.981 641.017 399.365 652.8 399.391 664.5L399.479 730.072C473.935 730.211 548.421 729.47 622.871 730.423C634.931 717.88 647.395 705.635 659.716 693.342C665.005 688.066 670.976 682.951 675.774 677.247C676.01 653.467 675.598 629.666 675.662 605.882L610.802 541.19C587.38 540.389 563.755 541.026 540.311 541.026L408.19 541.027C391.966 524.259 374.247 509.177 357.081 493.424L272.208 415.073L168.403 317.143L114.945 265.764C107.083 258.22 99.3944 250.475 91.3608 243.114L91.4851 69.7792Z"/>
</svg>
