<?xml version="1.0" standalone="no"?>
<!DOCTYPE svg PUBLIC "-//W3C//DTD SVG 20010904//EN"
 "http://www.w3.org/TR/2001/REC-SVG-20010904/DTD/svg10.dtd">
<svg version="1.0" xmlns="http://www.w3.org/2000/svg"
 width="300.000000pt" height="253.000000pt" viewBox="0 0 300.000000 253.000000"
 preserveAspectRatio="xMidYMid meet">
<metadata>
Created by potrace 1.10, written by Peter Selinger 2001-2011
</metadata>
<g transform="translate(0.000000,253.000000) scale(0.100000,-0.100000)"
fill="#000000" stroke="none">
<path d="M298 2163 c1 -164 7 -342 13 -395 42 -394 249 -607 634 -654 193 -24
244 -44 271 -110 31 -75 56 -70 -343 -73 -197 -1 -359 -4 -361 -6 -2 -2 -6
-127 -9 -279 l-6 -276 661 0 662 0 0 423 c0 462 -4 496 -59 605 -45 87 -86
138 -151 187 -88 64 -143 81 -325 100 -186 19 -235 29 -290 60 -52 30 -84 91
-70 135 6 19 15 20 126 20 l120 0 -3 280 -3 280 -435 0 -435 0 3 -297z m826
241 c8 -20 8 -428 0 -448 -5 -13 -23 -16 -94 -16 -73 0 -92 -3 -114 -21 -52
-41 -26 -148 50 -201 53 -37 122 -53 315 -73 182 -19 233 -34 312 -96 62 -49
101 -98 137 -173 47 -101 51 -147 48 -571 l-3 -390 -615 0 -615 0 -3 224 c-1
147 1 228 8 236 8 10 88 14 339 17 312 3 330 4 351 23 49 45 -1 159 -86 197
-25 10 -107 27 -188 38 -281 37 -447 140 -541 335 -68 141 -77 201 -84 575 -3
184 -4 341 -2 348 2 9 89 12 391 12 344 0 389 -2 394 -16z"/>
<path d="M1303 2318 c4 -79 7 -203 7 -275 l0 -133 415 0 415 0 32 -29 c28 -25
33 -36 33 -76 0 -40 -5 -51 -33 -76 l-32 -29 -237 0 -236 0 23 -25 c13 -14 51
-46 85 -70 103 -76 149 -168 182 -365 l17 -99 72 1 c75 0 126 -18 138 -47 13
-35 6 -102 -13 -119 -20 -18 -109 -36 -180 -36 l-44 0 6 -137 c4 -75 7 -203 7
-286 l0 -149 93 6 c291 21 419 65 537 185 102 104 162 255 163 406 0 139 -47
253 -162 390 l-50 60 63 65 c35 36 73 79 85 97 61 90 87 273 57 413 -37 172
-138 312 -271 375 -160 75 -320 94 -809 95 l-369 0 6 -142z m772 110 c340 -27
499 -107 596 -302 44 -91 59 -161 59 -287 0 -143 -35 -227 -144 -343 -63 -66
-66 -84 -24 -141 134 -188 156 -236 165 -352 8 -95 -10 -180 -57 -278 -70
-143 -172 -233 -320 -279 -86 -28 -118 -33 -256 -42 -100 -7 -101 -7 -107 17
-13 46 -8 474 5 487 7 7 35 12 62 13 71 1 117 20 144 59 28 42 28 88 -1 131
-26 39 -70 58 -138 58 -54 1 -64 10 -74 71 -14 89 -37 166 -71 237 -28 58 -47
83 -94 120 -32 27 -59 54 -59 61 -1 9 30 12 122 13 218 2 256 6 293 31 93 64
67 197 -45 228 -21 6 -192 10 -412 10 l-377 0 -5 23 c-3 12 -5 121 -4 242 l2
220 45 6 c72 8 574 7 695 -3z"/>
<path d="M350 170 l0 -110 25 0 26 0 -3 107 c-3 101 -4 106 -25 109 -23 4 -23
2 -23 -106z"/>
<path d="M420 168 c0 -107 0 -108 24 -108 24 0 24 1 18 85 l-5 86 84 -3 c78
-3 84 -4 87 -25 3 -22 0 -23 -68 -23 l-72 0 53 -59 c46 -50 59 -60 88 -60 l35
-1 -32 33 c-35 36 -41 50 -17 41 20 -8 65 40 65 68 0 13 -7 33 -15 45 -14 20
-26 22 -130 25 l-115 3 0 -107z"/>
<path d="M900 168 l0 -108 110 0 110 0 0 25 c0 25 -1 25 -85 25 -76 0 -85 2
-85 18 0 17 7 18 80 14 l80 -5 0 27 c0 26 0 26 -80 26 -74 0 -80 1 -80 21 0
19 5 20 85 17 85 -3 85 -3 85 22 l0 25 -110 0 -110 0 0 -107z"/>
<path d="M1140 169 l0 -109 25 0 c24 0 25 2 25 76 l0 75 63 -75 c43 -53 69
-76 85 -76 21 0 22 3 22 110 l0 110 -26 0 -26 0 7 -77 c4 -51 3 -75 -3 -68 -5
6 -35 39 -65 74 -38 43 -64 65 -81 67 l-26 3 0 -110z"/>
<path d="M1515 272 c-115 -4 -125 -11 -125 -102 0 -93 13 -104 134 -108 l93
-4 -1 66 -1 66 -57 0 c-56 0 -58 -1 -58 -26 0 -25 2 -26 35 -20 31 6 35 4 35
-14 0 -18 -6 -20 -65 -20 -36 0 -65 4 -66 10 0 6 -1 28 -1 50 0 22 1 45 1 50
1 6 38 10 91 10 82 0 90 2 90 19 0 26 -1 26 -105 23z"/>
<path d="M1639 270 c0 -3 -1 -50 -1 -105 1 -93 2 -100 21 -103 20 -3 21 1 21
105 0 102 -1 109 -20 109 -11 0 -20 -3 -21 -6z"/>
<path d="M1710 273 c-1 -2 -1 -49 -1 -105 -1 -100 0 -103 22 -103 21 0 22 3
20 75 -1 41 -1 73 2 70 2 -3 32 -38 67 -78 44 -52 68 -72 82 -70 18 3 20 11
20 108 0 102 -1 105 -23 105 -21 0 -22 -3 -20 -75 1 -41 1 -73 -2 -70 -2 3
-31 37 -64 75 -40 47 -68 71 -82 71 -11 0 -21 -2 -21 -3z"/>
<path d="M1950 168 l0 -108 110 0 110 0 0 25 c0 25 -1 25 -91 25 -81 0 -90 2
-87 18 3 15 14 17 86 13 l82 -3 0 26 c0 26 0 26 -86 26 -76 0 -85 2 -82 18 3
14 16 17 88 18 80 2 85 3 85 24 0 21 -4 22 -108 23 l-107 2 0 -107z"/>
<path d="M2190 168 l0 -108 110 0 110 0 0 25 c0 25 -1 25 -85 25 -76 0 -85 2
-85 18 0 17 7 18 80 14 l80 -5 0 27 c0 26 0 26 -80 26 -73 0 -80 2 -80 20 0
18 7 20 85 20 81 0 85 1 85 23 0 21 -3 22 -110 22 l-110 0 0 -107z"/>
<path d="M2430 168 l0 -108 25 0 c25 0 25 1 25 85 l0 85 79 0 c54 0 80 -4 83
-12 11 -30 -4 -38 -69 -38 l-65 0 52 -60 c41 -48 58 -60 81 -60 37 0 37 12 -2
44 -17 14 -29 26 -27 27 2 0 14 2 27 3 31 4 51 32 51 70 0 57 -8 61 -140 66
l-120 5 0 -107z"/>
<path d="M2835 271 c-96 -6 -100 -7 -113 -33 -15 -32 -3 -72 29 -89 14 -7 48
-10 91 -7 61 5 68 4 68 -13 0 -17 -9 -19 -95 -19 -95 0 -95 0 -95 -25 0 -25 1
-25 91 -25 116 0 149 15 149 71 0 45 -27 59 -118 59 -77 0 -82 1 -82 21 0 20
4 21 95 17 l95 -3 0 28 c0 15 -3 26 -7 25 -5 -1 -53 -4 -108 -7z"/>
<path d="M86 248 c-11 -16 -16 -46 -16 -105 0 -82 0 -83 25 -83 25 0 25 1 25
85 l0 85 80 0 c79 0 80 0 80 -25 0 -24 -2 -25 -65 -25 -63 0 -65 -1 -65 -25 0
-24 2 -25 65 -25 l65 0 0 -35 c0 -31 3 -35 26 -35 l26 0 -4 88 c-4 120 -6 122
-129 122 -90 0 -99 -2 -113 -22z"/>
</g>
</svg>
